<mxfile host="app.diagrams.net" modified="2021-09-08T11:23:15.012Z" agent="5.0 (Macintosh; Intel Mac OS X 10_15_7) AppleWebKit/537.36 (KHTML, like Gecko) Chrome/92.0.4515.159 Safari/537.36" etag="_lzGTPzqLQCVMJarCdS3" version="14.9.8" type="github">
  <diagram id="C5RBs43oDa-KdzZeNtuy" name="Page-1">
    <mxGraphModel dx="1393" dy="784" grid="1" gridSize="10" guides="1" tooltips="1" connect="1" arrows="1" fold="1" page="1" pageScale="1" pageWidth="827" pageHeight="1169" math="0" shadow="0">
      <root>
        <mxCell id="WIyWlLk6GJQsqaUBKTNV-0" />
        <mxCell id="WIyWlLk6GJQsqaUBKTNV-1" parent="WIyWlLk6GJQsqaUBKTNV-0" />
        <mxCell id="T1-fg34D8Ipld1fYhuAQ-1" value="" style="edgeStyle=orthogonalEdgeStyle;rounded=0;orthogonalLoop=1;jettySize=auto;html=1;" edge="1" parent="WIyWlLk6GJQsqaUBKTNV-1" source="WIyWlLk6GJQsqaUBKTNV-3" target="WIyWlLk6GJQsqaUBKTNV-7">
          <mxGeometry relative="1" as="geometry" />
        </mxCell>
        <mxCell id="WIyWlLk6GJQsqaUBKTNV-3" value="客人选购" style="rounded=1;whiteSpace=wrap;html=1;fontSize=12;glass=0;strokeWidth=1;shadow=0;fillColor=#dae8fc;strokeColor=#6c8ebf;" parent="WIyWlLk6GJQsqaUBKTNV-1" vertex="1">
          <mxGeometry x="80" y="40" width="120" height="40" as="geometry" />
        </mxCell>
        <mxCell id="T1-fg34D8Ipld1fYhuAQ-2" value="" style="edgeStyle=orthogonalEdgeStyle;rounded=0;orthogonalLoop=1;jettySize=auto;html=1;" edge="1" parent="WIyWlLk6GJQsqaUBKTNV-1" source="WIyWlLk6GJQsqaUBKTNV-7" target="WIyWlLk6GJQsqaUBKTNV-12">
          <mxGeometry relative="1" as="geometry" />
        </mxCell>
        <mxCell id="WIyWlLk6GJQsqaUBKTNV-7" value="结账" style="rounded=1;whiteSpace=wrap;html=1;fontSize=12;glass=0;strokeWidth=1;shadow=0;fillColor=#dae8fc;strokeColor=#6c8ebf;" parent="WIyWlLk6GJQsqaUBKTNV-1" vertex="1">
          <mxGeometry x="80" y="120" width="120" height="40" as="geometry" />
        </mxCell>
        <mxCell id="T1-fg34D8Ipld1fYhuAQ-6" value="" style="edgeStyle=orthogonalEdgeStyle;rounded=0;orthogonalLoop=1;jettySize=auto;html=1;" edge="1" parent="WIyWlLk6GJQsqaUBKTNV-1" source="WIyWlLk6GJQsqaUBKTNV-11" target="T1-fg34D8Ipld1fYhuAQ-4">
          <mxGeometry relative="1" as="geometry" />
        </mxCell>
        <mxCell id="WIyWlLk6GJQsqaUBKTNV-11" value="扫码/Key 条码" style="rounded=1;whiteSpace=wrap;html=1;fontSize=12;glass=0;strokeWidth=1;shadow=0;fillColor=#ffe6cc;strokeColor=#d79b00;" parent="WIyWlLk6GJQsqaUBKTNV-1" vertex="1">
          <mxGeometry x="280" y="280" width="120" height="40" as="geometry" />
        </mxCell>
        <mxCell id="T1-fg34D8Ipld1fYhuAQ-3" value="" style="edgeStyle=orthogonalEdgeStyle;rounded=0;orthogonalLoop=1;jettySize=auto;html=1;" edge="1" parent="WIyWlLk6GJQsqaUBKTNV-1" source="WIyWlLk6GJQsqaUBKTNV-12" target="T1-fg34D8Ipld1fYhuAQ-0">
          <mxGeometry relative="1" as="geometry" />
        </mxCell>
        <mxCell id="WIyWlLk6GJQsqaUBKTNV-12" value="客人持小票至会员服务部" style="rounded=1;whiteSpace=wrap;html=1;fontSize=12;glass=0;strokeWidth=1;shadow=0;fillColor=#dae8fc;strokeColor=#6c8ebf;" parent="WIyWlLk6GJQsqaUBKTNV-1" vertex="1">
          <mxGeometry x="80" y="200" width="120" height="40" as="geometry" />
        </mxCell>
        <mxCell id="T1-fg34D8Ipld1fYhuAQ-5" value="" style="edgeStyle=orthogonalEdgeStyle;rounded=0;orthogonalLoop=1;jettySize=auto;html=1;" edge="1" parent="WIyWlLk6GJQsqaUBKTNV-1" source="T1-fg34D8Ipld1fYhuAQ-0" target="WIyWlLk6GJQsqaUBKTNV-11">
          <mxGeometry relative="1" as="geometry" />
        </mxCell>
        <mxCell id="T1-fg34D8Ipld1fYhuAQ-0" value="客服新增SO订单" style="rounded=1;whiteSpace=wrap;html=1;fontSize=12;glass=0;strokeWidth=1;shadow=0;fillColor=#ffe6cc;strokeColor=#d79b00;" vertex="1" parent="WIyWlLk6GJQsqaUBKTNV-1">
          <mxGeometry x="280" y="200" width="120" height="40" as="geometry" />
        </mxCell>
        <mxCell id="T1-fg34D8Ipld1fYhuAQ-8" value="" style="edgeStyle=orthogonalEdgeStyle;rounded=0;orthogonalLoop=1;jettySize=auto;html=1;exitX=0.5;exitY=1;exitDx=0;exitDy=0;" edge="1" parent="WIyWlLk6GJQsqaUBKTNV-1" source="T1-fg34D8Ipld1fYhuAQ-4" target="T1-fg34D8Ipld1fYhuAQ-7">
          <mxGeometry relative="1" as="geometry" />
        </mxCell>
        <mxCell id="T1-fg34D8Ipld1fYhuAQ-4" value="通过PI抓取结账交易" style="rounded=1;whiteSpace=wrap;html=1;fontSize=12;glass=0;strokeWidth=1;shadow=0;fillColor=#d5e8d4;strokeColor=#82b366;" vertex="1" parent="WIyWlLk6GJQsqaUBKTNV-1">
          <mxGeometry x="480" y="280" width="120" height="40" as="geometry" />
        </mxCell>
        <mxCell id="T1-fg34D8Ipld1fYhuAQ-10" value="" style="edgeStyle=orthogonalEdgeStyle;rounded=0;orthogonalLoop=1;jettySize=auto;html=1;" edge="1" parent="WIyWlLk6GJQsqaUBKTNV-1" source="T1-fg34D8Ipld1fYhuAQ-7" target="T1-fg34D8Ipld1fYhuAQ-9">
          <mxGeometry relative="1" as="geometry" />
        </mxCell>
        <mxCell id="T1-fg34D8Ipld1fYhuAQ-7" value="载入交易明细" style="rounded=1;whiteSpace=wrap;html=1;fontSize=12;glass=0;strokeWidth=1;shadow=0;fillColor=#ffe6cc;strokeColor=#d79b00;" vertex="1" parent="WIyWlLk6GJQsqaUBKTNV-1">
          <mxGeometry x="280" y="360" width="120" height="40" as="geometry" />
        </mxCell>
        <mxCell id="T1-fg34D8Ipld1fYhuAQ-15" value="" style="edgeStyle=orthogonalEdgeStyle;rounded=0;orthogonalLoop=1;jettySize=auto;html=1;" edge="1" parent="WIyWlLk6GJQsqaUBKTNV-1" source="T1-fg34D8Ipld1fYhuAQ-9" target="T1-fg34D8Ipld1fYhuAQ-14">
          <mxGeometry relative="1" as="geometry" />
        </mxCell>
        <mxCell id="T1-fg34D8Ipld1fYhuAQ-9" value="输入地址，联系方式，运放方式，是否安装，备注，时间" style="rounded=1;whiteSpace=wrap;html=1;fontSize=12;glass=0;strokeWidth=1;shadow=0;fillColor=#ffe6cc;strokeColor=#d79b00;" vertex="1" parent="WIyWlLk6GJQsqaUBKTNV-1">
          <mxGeometry x="280" y="440" width="120" height="40" as="geometry" />
        </mxCell>
        <mxCell id="T1-fg34D8Ipld1fYhuAQ-11" value="结账/客服" style="text;html=1;strokeColor=none;fillColor=none;align=center;verticalAlign=middle;whiteSpace=wrap;rounded=0;" vertex="1" parent="WIyWlLk6GJQsqaUBKTNV-1">
          <mxGeometry x="85" y="10" width="110" height="20" as="geometry" />
        </mxCell>
        <mxCell id="T1-fg34D8Ipld1fYhuAQ-12" value="SO" style="text;html=1;strokeColor=none;fillColor=none;align=center;verticalAlign=middle;whiteSpace=wrap;rounded=0;" vertex="1" parent="WIyWlLk6GJQsqaUBKTNV-1">
          <mxGeometry x="285" y="10" width="110" height="20" as="geometry" />
        </mxCell>
        <mxCell id="T1-fg34D8Ipld1fYhuAQ-13" value="SAP" style="text;html=1;strokeColor=none;fillColor=none;align=center;verticalAlign=middle;whiteSpace=wrap;rounded=0;" vertex="1" parent="WIyWlLk6GJQsqaUBKTNV-1">
          <mxGeometry x="485" y="10" width="110" height="20" as="geometry" />
        </mxCell>
        <mxCell id="T1-fg34D8Ipld1fYhuAQ-21" value="" style="edgeStyle=orthogonalEdgeStyle;rounded=0;orthogonalLoop=1;jettySize=auto;html=1;" edge="1" parent="WIyWlLk6GJQsqaUBKTNV-1" source="T1-fg34D8Ipld1fYhuAQ-14" target="T1-fg34D8Ipld1fYhuAQ-16">
          <mxGeometry relative="1" as="geometry" />
        </mxCell>
        <mxCell id="T1-fg34D8Ipld1fYhuAQ-22" value="Yes" style="edgeLabel;html=1;align=center;verticalAlign=middle;resizable=0;points=[];" vertex="1" connectable="0" parent="T1-fg34D8Ipld1fYhuAQ-21">
          <mxGeometry x="0.05" relative="1" as="geometry">
            <mxPoint as="offset" />
          </mxGeometry>
        </mxCell>
        <mxCell id="T1-fg34D8Ipld1fYhuAQ-26" value="" style="edgeStyle=orthogonalEdgeStyle;rounded=0;orthogonalLoop=1;jettySize=auto;html=1;" edge="1" parent="WIyWlLk6GJQsqaUBKTNV-1" source="T1-fg34D8Ipld1fYhuAQ-14" target="T1-fg34D8Ipld1fYhuAQ-25">
          <mxGeometry relative="1" as="geometry" />
        </mxCell>
        <mxCell id="T1-fg34D8Ipld1fYhuAQ-28" value="No" style="edgeLabel;html=1;align=center;verticalAlign=middle;resizable=0;points=[];" vertex="1" connectable="0" parent="T1-fg34D8Ipld1fYhuAQ-26">
          <mxGeometry x="-0.15" relative="1" as="geometry">
            <mxPoint as="offset" />
          </mxGeometry>
        </mxCell>
        <mxCell id="T1-fg34D8Ipld1fYhuAQ-14" value="是否厂送" style="rhombus;whiteSpace=wrap;html=1;fillColor=#ffe6cc;strokeColor=#d79b00;" vertex="1" parent="WIyWlLk6GJQsqaUBKTNV-1">
          <mxGeometry x="280" y="520" width="120" height="40" as="geometry" />
        </mxCell>
        <mxCell id="T1-fg34D8Ipld1fYhuAQ-16" value="产生PO" style="rounded=1;whiteSpace=wrap;html=1;fontSize=12;glass=0;strokeWidth=1;shadow=0;fillColor=#d5e8d4;strokeColor=#82b366;" vertex="1" parent="WIyWlLk6GJQsqaUBKTNV-1">
          <mxGeometry x="480" y="520" width="120" height="40" as="geometry" />
        </mxCell>
        <mxCell id="T1-fg34D8Ipld1fYhuAQ-17" value="1. 备注客人地址及联系方式&lt;br&gt;2. PO Dest. Location为WH&lt;br&gt;3. 使用Email发送安运单" style="text;html=1;strokeColor=none;fillColor=none;align=left;verticalAlign=middle;whiteSpace=wrap;rounded=0;" vertex="1" parent="WIyWlLk6GJQsqaUBKTNV-1">
          <mxGeometry x="640" y="480" width="150" height="40" as="geometry" />
        </mxCell>
        <mxCell id="T1-fg34D8Ipld1fYhuAQ-20" value="" style="endArrow=none;dashed=1;html=1;" edge="1" parent="WIyWlLk6GJQsqaUBKTNV-1" source="T1-fg34D8Ipld1fYhuAQ-16" target="T1-fg34D8Ipld1fYhuAQ-17">
          <mxGeometry width="50" height="50" relative="1" as="geometry">
            <mxPoint x="640" y="600" as="sourcePoint" />
            <mxPoint x="690" y="550" as="targetPoint" />
          </mxGeometry>
        </mxCell>
        <mxCell id="T1-fg34D8Ipld1fYhuAQ-29" value="" style="edgeStyle=orthogonalEdgeStyle;rounded=0;orthogonalLoop=1;jettySize=auto;html=1;" edge="1" parent="WIyWlLk6GJQsqaUBKTNV-1" source="T1-fg34D8Ipld1fYhuAQ-25" target="T1-fg34D8Ipld1fYhuAQ-27">
          <mxGeometry relative="1" as="geometry" />
        </mxCell>
        <mxCell id="T1-fg34D8Ipld1fYhuAQ-30" value="Yes" style="edgeLabel;html=1;align=center;verticalAlign=middle;resizable=0;points=[];" vertex="1" connectable="0" parent="T1-fg34D8Ipld1fYhuAQ-29">
          <mxGeometry x="-0.125" y="2" relative="1" as="geometry">
            <mxPoint as="offset" />
          </mxGeometry>
        </mxCell>
        <mxCell id="T1-fg34D8Ipld1fYhuAQ-32" value="" style="edgeStyle=orthogonalEdgeStyle;rounded=0;orthogonalLoop=1;jettySize=auto;html=1;" edge="1" parent="WIyWlLk6GJQsqaUBKTNV-1" source="T1-fg34D8Ipld1fYhuAQ-25" target="T1-fg34D8Ipld1fYhuAQ-31">
          <mxGeometry relative="1" as="geometry" />
        </mxCell>
        <mxCell id="T1-fg34D8Ipld1fYhuAQ-33" value="No" style="edgeLabel;html=1;align=center;verticalAlign=middle;resizable=0;points=[];" vertex="1" connectable="0" parent="T1-fg34D8Ipld1fYhuAQ-32">
          <mxGeometry x="-0.25" y="2" relative="1" as="geometry">
            <mxPoint as="offset" />
          </mxGeometry>
        </mxCell>
        <mxCell id="T1-fg34D8Ipld1fYhuAQ-25" value="是否门店配送" style="rhombus;whiteSpace=wrap;html=1;fillColor=#ffe6cc;strokeColor=#d79b00;" vertex="1" parent="WIyWlLk6GJQsqaUBKTNV-1">
          <mxGeometry x="280" y="600" width="120" height="40" as="geometry" />
        </mxCell>
        <mxCell id="T1-fg34D8Ipld1fYhuAQ-34" style="edgeStyle=orthogonalEdgeStyle;rounded=0;orthogonalLoop=1;jettySize=auto;html=1;entryX=0;entryY=0.5;entryDx=0;entryDy=0;exitX=0.5;exitY=1;exitDx=0;exitDy=0;" edge="1" parent="WIyWlLk6GJQsqaUBKTNV-1" source="T1-fg34D8Ipld1fYhuAQ-27" target="T1-fg34D8Ipld1fYhuAQ-31">
          <mxGeometry relative="1" as="geometry" />
        </mxCell>
        <mxCell id="T1-fg34D8Ipld1fYhuAQ-27" value="备货、Allocate库存及打印安运单通知工班" style="rounded=1;whiteSpace=wrap;html=1;fontSize=12;glass=0;strokeWidth=1;shadow=0;fillColor=#dae8fc;strokeColor=#6c8ebf;" vertex="1" parent="WIyWlLk6GJQsqaUBKTNV-1">
          <mxGeometry x="80" y="600" width="120" height="40" as="geometry" />
        </mxCell>
        <mxCell id="T1-fg34D8Ipld1fYhuAQ-36" value="" style="edgeStyle=orthogonalEdgeStyle;rounded=0;orthogonalLoop=1;jettySize=auto;html=1;" edge="1" parent="WIyWlLk6GJQsqaUBKTNV-1" source="T1-fg34D8Ipld1fYhuAQ-31" target="T1-fg34D8Ipld1fYhuAQ-35">
          <mxGeometry relative="1" as="geometry" />
        </mxCell>
        <mxCell id="T1-fg34D8Ipld1fYhuAQ-41" value="" style="edgeStyle=orthogonalEdgeStyle;rounded=0;orthogonalLoop=1;jettySize=auto;html=1;" edge="1" parent="WIyWlLk6GJQsqaUBKTNV-1" source="T1-fg34D8Ipld1fYhuAQ-31" target="T1-fg34D8Ipld1fYhuAQ-40">
          <mxGeometry relative="1" as="geometry" />
        </mxCell>
        <mxCell id="T1-fg34D8Ipld1fYhuAQ-31" value="验收SO" style="rounded=1;whiteSpace=wrap;html=1;fontSize=12;glass=0;strokeWidth=1;shadow=0;fillColor=#ffe6cc;strokeColor=#d79b00;" vertex="1" parent="WIyWlLk6GJQsqaUBKTNV-1">
          <mxGeometry x="280" y="680" width="120" height="40" as="geometry" />
        </mxCell>
        <mxCell id="T1-fg34D8Ipld1fYhuAQ-35" value="自动产生GR" style="rounded=1;whiteSpace=wrap;html=1;fontSize=12;glass=0;strokeWidth=1;shadow=0;fillColor=#d5e8d4;strokeColor=#82b366;" vertex="1" parent="WIyWlLk6GJQsqaUBKTNV-1">
          <mxGeometry x="480" y="680" width="120" height="40" as="geometry" />
        </mxCell>
        <mxCell id="T1-fg34D8Ipld1fYhuAQ-37" value="自动扣库存" style="rounded=1;whiteSpace=wrap;html=1;fontSize=12;glass=0;strokeWidth=1;shadow=0;fillColor=#d5e8d4;strokeColor=#82b366;" vertex="1" parent="WIyWlLk6GJQsqaUBKTNV-1">
          <mxGeometry x="480" y="760" width="120" height="40" as="geometry" />
        </mxCell>
        <mxCell id="T1-fg34D8Ipld1fYhuAQ-39" value="待讨论：&lt;br&gt;SO商品需要SO订单完成后才认列业绩？&lt;br&gt;SO商品是否可实体销售？客人直接带走商品的处理流程需确认。&lt;br&gt;SO单退货及逆物流的处理。&lt;br&gt;&lt;br&gt;备注事项：&lt;br&gt;* SO商品ECC不通过POSLog扣库存及认销售业绩&lt;br&gt;* 已销售门店库存的SO商品需要存放于被Allocate的库位&lt;br&gt;* SO系统接收SAP的商品主档（是否可从PI获取POS销售时抓取全部所需资料？）&lt;br&gt;* SO从SAP接收厂商主档&lt;br&gt;&lt;br&gt;待确认：&lt;br&gt;1. SAP厂商主档接口&lt;br&gt;2. 抓取POS销售接口&lt;br&gt;3. 结案后产生GR接口&lt;br&gt;4. SO单验收后的销售认列" style="text;html=1;strokeColor=none;fillColor=none;align=left;verticalAlign=top;whiteSpace=wrap;rounded=0;" vertex="1" parent="WIyWlLk6GJQsqaUBKTNV-1">
          <mxGeometry x="100" y="850" width="640" height="250" as="geometry" />
        </mxCell>
        <mxCell id="T1-fg34D8Ipld1fYhuAQ-42" value="" style="edgeStyle=orthogonalEdgeStyle;rounded=0;orthogonalLoop=1;jettySize=auto;html=1;" edge="1" parent="WIyWlLk6GJQsqaUBKTNV-1" source="T1-fg34D8Ipld1fYhuAQ-40" target="T1-fg34D8Ipld1fYhuAQ-37">
          <mxGeometry relative="1" as="geometry" />
        </mxCell>
        <mxCell id="T1-fg34D8Ipld1fYhuAQ-40" value="产生POSLog" style="rounded=1;whiteSpace=wrap;html=1;fontSize=12;glass=0;strokeWidth=1;shadow=0;fillColor=#ffe6cc;strokeColor=#d79b00;" vertex="1" parent="WIyWlLk6GJQsqaUBKTNV-1">
          <mxGeometry x="280" y="760" width="120" height="40" as="geometry" />
        </mxCell>
      </root>
    </mxGraphModel>
  </diagram>
</mxfile>
